<?xml version="1.0" standalone="no"?><!DOCTYPE svg PUBLIC "-//W3C//DTD SVG 1.1//EN" "http://www.w3.org/Graphics/SVG/1.1/DTD/svg11.dtd"><svg t="1713929542166" class="icon" viewBox="0 0 1024 1024" version="1.1" xmlns="http://www.w3.org/2000/svg" p-id="16351" xmlns:xlink="http://www.w3.org/1999/xlink" width="200" height="200"><path d="M147.663768 0C103.142029 0 66.04058 37.101449 66.04058 81.623188v854.817392c0 44.521739 37.101449 81.623188 81.623188 81.623188h728.672464c44.521739 0 81.623188-37.101449 81.623188-81.623188V323.524638L656.695652 0H147.663768z" fill="#8199AF" p-id="16352"></path><path d="M956.475362 325.008696V341.333333H753.15942s-100.915942-20.776812-97.947826-106.852174c0 0 2.968116 90.527536 94.97971 90.527537H956.475362z" fill="#617F9B" p-id="16353"></path><path d="M656.695652 0v231.513043c0 25.228986 17.808696 92.011594 96.463768 92.011595H956.475362L656.695652 0zM345.043478 857.785507H244.127536c-8.904348 0-17.808696-7.42029-17.808695-17.808695V684.150725c0-8.904348 7.42029-17.808696 17.808695-17.808696h100.915942c4.452174 0 8.904348 4.452174 8.904348 11.872464 0 5.936232-4.452174 8.904348-8.904348 8.904348h-93.495652v62.330434h90.527536c5.936232 0 11.872464 4.452174 11.872464 11.872464 0 5.936232-4.452174 8.904348-11.872464 8.904348h-90.527536v66.782609h93.495652c4.452174 0 8.904348 4.452174 8.904348 8.904347 0 5.936232-4.452174 11.872464-8.904348 11.872464z m191.443479 1.484058c-4.452174 0-7.42029 0-8.904348-2.968116l-59.362319-80.13913-60.846377 78.655072c-1.484058 2.968116-4.452174 2.968116-7.42029 2.968116-5.936232 0-11.872464-4.452174-11.872464-11.872464 0-1.484058 0-4.452174 1.484058-5.936231l62.330435-81.623189-56.394203-75.686956c-1.484058-1.484058-2.968116-2.968116-2.968116-5.936232 0-4.452174 4.452174-11.872464 13.356522-11.872464 2.968116 0 5.936232 1.484058 7.42029 4.452174l56.394203 72.718841 53.426087-72.718841c1.484058-2.968116 4.452174-4.452174 8.904348-4.452174s11.872464 4.452174 11.872463 11.872464c0 2.968116 0 4.452174-1.484058 5.936232l-57.87826 75.686956 60.846376 83.107247c1.484058 1.484058 2.968116 4.452174 2.968116 5.936231 0 5.936232-7.42029 11.872464-11.872463 11.872464z m170.666666-1.484058h-97.947826c-8.904348 0-17.808696-7.42029-17.808696-17.808695V684.150725c0-8.904348 7.42029-17.808696 17.808696-17.808696h97.947826c5.936232 0 11.872464 4.452174 11.872464 11.872464 0 5.936232-4.452174 8.904348-11.872464 8.904348H615.142029v62.330434h90.527536c5.936232 0 11.872464 4.452174 11.872464 11.872464 0 5.936232-4.452174 8.904348-11.872464 8.904348H615.142029v66.782609h92.011594c5.936232 0 11.872464 4.452174 11.872464 8.904347-1.484058 5.936232-5.936232 11.872464-11.872464 11.872464z" fill="#FFFFFF" p-id="16354"></path></svg>