<?xml version="1.0" standalone="no"?><!DOCTYPE svg PUBLIC "-//W3C//DTD SVG 1.1//EN" "http://www.w3.org/Graphics/SVG/1.1/DTD/svg11.dtd"><svg t="1713407495291" class="icon" viewBox="0 0 1024 1024" version="1.1" xmlns="http://www.w3.org/2000/svg" p-id="19793" xmlns:xlink="http://www.w3.org/1999/xlink" width="200" height="200"><path d="M542 466h180c60.752 0 110 49.25 110 110v106c0 60.752-49.248 110-110 110h-180c-60.75 0-110-49.248-110-110v-106c0-60.75 49.25-110 110-110z" fill="#DFEAFF" p-id="19794"></path><path d="M722 792H302c-60.654 0-110-49.346-110-110V262.028c0-16.568 13.43-30 29.998-30l356.5-0.028a29.998 29.998 0 0 1 28.4 20.332L627.214 312H722c60.654 0 110 49.346 110 110v260c0 60.654-49.346 110-110 110zM252 292.026V682c0 27.57 22.43 50 50 50h420c27.57 0 50-22.43 50-50V422c0-27.57-22.43-50-50-50h-116.262a29.998 29.998 0 0 1-28.398-20.332l-20.316-59.666-305.024 0.024z" fill="#1F48D1" p-id="19795"></path><path d="M512 622c-16.568 0-30-13.432-30-30v-160c0-16.568 13.432-30 30-30s30 13.432 30 30v160c0 16.568-13.432 30-30 30z" fill="#1F48D1" p-id="19796"></path><path d="M592 542h-160c-16.568 0-30-13.432-30-30s13.432-30 30-30h160c16.568 0 30 13.432 30 30s-13.432 30-30 30z" fill="#1F48D1" p-id="19797"></path></svg>