<svg id="图层_1" data-name="图层 1" xmlns="http://www.w3.org/2000/svg" viewBox="0 0 165.29 49.7"><defs><style>.cls-1,.cls-2{fill:none;stroke-linecap:round;stroke-linejoin:round;}.cls-1{stroke:#222;stroke-width:4.16px;}.cls-2{stroke:#ff5745;stroke-width:3.2px;}.cls-3{fill:#222;fill-rule:evenodd;}.cls-4{font-size:34.73px;fill:#151515;font-family:Sarasa-Mono-SC-Bold, Sarasa Mono SC;font-weight:700;}</style></defs><path class="cls-1" d="M17,26.34A12.87,12.87,0,0,1,29.8,13.4,11.93,11.93,0,0,1,41.72,25.6" transform="translate(-10.12 -9.76)"/><path class="cls-2" d="M40.2,26.34a7.28,7.28,0,0,1,0,14.56" transform="translate(-10.12 -9.76)"/><path class="cls-1" d="M21.1,40.9H19.4a7.24,7.24,0,0,1-7.2-7.28,7.39,7.39,0,0,1,.45-2.55,7.91,7.91,0,0,1,4.65-4.41,9,9,0,0,1,9.25,2.5M21.32,40.9c2.84-.27,5.62-2.9,6.85-4.58,1.39-1.92,2.86-3.8,4.38-5.62,2-2.41,4.36-4.36,7.65-4.36a7.28,7.28,0,0,1,0,14.56" transform="translate(-10.12 -9.76)"/><path class="cls-3" d="M20.2,40.4v1A1.6,1.6,0,0,0,21.8,43H40.2V38.79H21.8A1.61,1.61,0,0,0,20.2,40.4Z" transform="translate(-10.12 -9.76)"/><text class="cls-4" transform="translate(45.41 30.56) scale(0.86 1)">彗星网盘</text></svg>