<?xml version="1.0" standalone="no"?><!DOCTYPE svg PUBLIC "-//W3C//DTD SVG 1.1//EN" "http://www.w3.org/Graphics/SVG/1.1/DTD/svg11.dtd"><svg t="1713883952748" class="icon" viewBox="0 0 1195 1024" version="1.1" xmlns="http://www.w3.org/2000/svg" p-id="27092" xmlns:xlink="http://www.w3.org/1999/xlink" width="233.3984375" height="200"><path d="M830.055332 658.775654m-365.224346 0a365.224346 365.224346 0 1 0 730.448692 0 365.224346 365.224346 0 1 0-730.448692 0Z" fill="#5CF1E7" p-id="27093"></path><path d="M970.242455 1001.338172H162.848951A162.848951 162.848951 0 0 1 0 838.489221V171.28284A162.848951 162.848951 0 0 1 162.848951 8.433889h403.696752a52.701926 52.701926 0 0 1 0 105.403852H162.848951A57.445099 57.445099 0 0 0 105.403852 171.28284v667.206381A57.445099 57.445099 0 0 0 162.848951 895.93432h807.393504a57.445099 57.445099 0 0 0 57.445099-57.445099V437.427565a52.701926 52.701926 0 0 1 105.403851 0v401.061656A162.848951 162.848951 0 0 1 970.242455 1001.338172z" fill="#1F56F5" p-id="27094"></path><path d="M898.567835 0.001581a45.323656 45.323656 0 0 0-36.891348 18.445674 46.377695 46.377695 0 0 0 8.959328 65.350388l142.2952 108.038948a46.904714 46.904714 0 0 0 27.93202 9.486347 46.904714 46.904714 0 0 0 28.45904-83.796062l-142.2952-105.403852a47.431733 47.431733 0 0 0-28.45904-12.121443z" fill="#A8B9E9" p-id="27095"></path><path d="M1040.336016 105.405433a46.904714 46.904714 0 0 0-37.418367 18.445674L890.662547 274.578615a46.904714 46.904714 0 0 0 37.418367 74.836734 46.377695 46.377695 0 0 0 36.891348-18.445674l112.782121-148.092411A46.904714 46.904714 0 0 0 1040.336016 105.405433z" fill="#A8B9E9" p-id="27096"></path><path d="M421.615407 711.47758h-14.22952A52.701926 52.701926 0 0 1 368.913481 645.073153C534.397528 43.21716 1017.147169 95.392067 1021.890342 95.919086a52.701926 52.701926 0 0 1 45.850675 58.499138 52.701926 52.701926 0 0 1-58.499137 46.377694c-16.337597 0-398.426559-39.526444-539.667721 474.317333a52.701926 52.701926 0 0 1-47.958752 36.364329z" fill="#A8B9E9" p-id="27097"></path></svg>